# xmcd
#
# Track frame offsets:
#	150
#	15528
#	34783
#	48170
#	60204
#	74289
#	88913
#	103722
#	118302
#	130531
#	142437
#	158953
#	171835
#	187300
#	199566
#	212694
#	225261
#	237484
#
# Disc length: 3342 seconds
#
# Revision: 2
# Processed by: cddbd v1.5.2PL0 Copyright (c) Steve Scherf et al.
# Submitted via: CDex 1.70beta2
#
DISCID=000d0c12
DTITLE=Erroll Garner - Erroll Garner Cd4
DYEAR=2005
DGENRE=Jazz
TTITLE0=Honeysuckle Rose
TTITLE1=My Heart Stood Still
TTITLE2=For You
TTITLE3=I Never Knew
TTITLE4=Blues I Can´t Forget
TTITLE5=Someone to Watch Over Me
TTITLE6=It´s the Talk of the Town
TTITLE7=Lover Come Back to Me
TTITLE8=Georgia on My Mind
TTITLE9=Long Ago and Far Away
TTITLE10=I Cover the Waterfront
TTITLE11=All of Me
TTITLE12=Erroll´s Blues
TTITLE13=Red Sails in the Sunset
TTITLE14=Pastel
TTITLE15=If I Loved You
TTITLE16=Blues Garni
TTITLE17=Confession
EXTD=YEAR: 2005
EXTT0=
EXTT1=
EXTT2=
EXTT3=
EXTT4=
EXTT5=
EXTT6=
EXTT7=
EXTT8=
EXTT9=
EXTT10=
EXTT11=
EXTT12=
EXTT13=
EXTT14=
EXTT15=
EXTT16=
EXTT17=
PLAYORDER=
